<svg xmlns="http://www.w3.org/2000/svg" xmlns:xlink="http://www.w3.org/1999/xlink" xml:space="preserve" style="shape-rendering:geometricPrecision;text-rendering:geometricPrecision;image-rendering:optimizeQuality;" viewBox="0 0 10.37 12.962499999999999" x="0px" y="0px" fill-rule="evenodd" clip-rule="evenodd"><defs><style type="text/css">
   
    .fil1 {fill:none}
    .fil0 {fill:black;fill-rule:nonzero}
   
  </style></defs><g><path class="fil0" d="M3.26186 2.91412l3.84628 0c0.0441811,0 0.08,0.0358189 0.08,0.08l0 0.469268c0,0.0441811 -0.0358189,0.08 -0.08,0.08l-3.84628 0c-0.0441811,0 -0.08,-0.0358189 -0.08,-0.08l0 -0.469268c0,-0.0441811 0.0358189,-0.08 0.08,-0.08zm3.76628 0.16l-3.68628 0 0 0.309268 3.68628 0 0 -0.309268z"/><path class="fil0" d="M3.64819 2.62496l3.07364 0c0.0441811,0 0.08,0.0358189 0.08,0.08l0 0.289161c0,0.0441811 -0.0358189,0.08 -0.08,0.08l-3.07364 0c-0.0441811,0 -0.08,-0.0358189 -0.08,-0.08l0 -0.289161c0,-0.0441811 0.0358189,-0.08 0.08,-0.08zm2.99364 0.16l-2.91364 0 0 0.129161 2.91364 0 0 -0.129161z"/><path class="fil0" d="M3.46278 3.38339l3.44509 0c0.0441811,0 0.08,0.0358189 0.08,0.08 0,0.0059252 -0.000653543,0.0117008 -0.00187402,0.0172598l-0.147244 1.14267 -0.393228 3.05164 -0.079063 -0.01 0.0793425 0.0102244c-0.00522835,0.0405669 -0.0399803,0.0700945 -0.0798819,0.0697756l-2.36236 0c-0.0430787,0 -0.0782047,-0.0340591 -0.0799291,-0.0767126l-0.406677 -3.15595 -0.133846 -1.03872 -0.00030315 3.93701e-005c-0.00564567,-0.0438189 0.0252992,-0.0839213 0.0691181,-0.0895669 0.00364961,-0.000472441 0.00727559,-0.000681102 0.0108583,-0.00065748zm3.35443 0.16l-3.2644 0 0.122272 0.948909 0.398524 3.09266 2.22281 0 0.384209 -2.98164 0.136583 -1.05993z"/><path class="fil0" d="M3.58383 4.18773c-0.0441811,0 -0.08,0.0358189 -0.08,0.08 0,0.0441811 0.0358189,0.08 0.08,0.08l3.20234 0c0.0441811,0 0.08,-0.0358189 0.08,-0.08 0,-0.0441811 -0.0358189,-0.08 -0.08,-0.08l-3.20234 0z"/><path class="fil0" d="M6.15743 5.3622c-0.0156181,0.00730709 -0.0288583,0.0143976 -0.041622,0.0212283 -0.0262402,0.0140472 -0.0508898,0.0272402 -0.0890236,0.0412756 -0.0704528,0.0259331 -0.135047,0.0448031 -0.201976,0.0571772 -0.0664528,0.0122874 -0.133874,0.0176772 -0.21022,0.016689 -0.0433189,-0.000562992 -0.0947165,-0.00372047 -0.147287,-0.0104843 -0.0462677,-0.00595276 -0.0926535,-0.0143504 -0.134508,-0.0257047 -0.119768,-0.0325 -0.148933,-0.0440551 -0.263961,-0.0896339l-0.0111496 -0.00441732 -0.000106299 0.000267717c-0.0614055,-0.0243228 -0.123854,-0.0461024 -0.18487,-0.0618228 -0.0613031,-0.0157953 -0.123496,-0.0265197 -0.185256,-0.0291417 -0.069811,-0.00296457 -0.138571,0.000909449 -0.205449,0.016378 -0.0649488,0.0150236 -0.128697,0.041315 -0.190685,0.0834882l-0.09 -0.131874c0.0795669,-0.0541378 0.161508,-0.0879094 0.245063,-0.107236 0.081622,-0.018878 0.164224,-0.0236614 0.247323,-0.0201339 0.0735079,0.00312205 0.146724,0.0156772 0.218382,0.0341417 0.0719449,0.0185354 0.140067,0.0420354 0.20424,0.0674528l0 0.000311024 0.0112559 0.00446063c0.104343,0.0413425 0.130795,0.0518268 0.247087,0.0833819 0.0372047,0.0100945 0.075748,0.0172126 0.112634,0.0219567 0.0463346,0.00596457 0.0913701,0.00874409 0.129161,0.00923228 0.0654724,0.000850394 0.123075,-0.00373622 0.179598,-0.014185 0.0560551,-0.0103622 0.112449,-0.0270118 0.175724,-0.0503031 0.0301929,-0.0111102 0.049,-0.0211811 0.0690236,-0.0318976 0.0145748,-0.00779921 0.0296929,-0.0158937 0.0491181,-0.0249843l0.0675039 0.144378z"/><path class="fil0" d="M5.185 4.60566c0.275106,0 0.525488,0.0747795 0.707906,0.195669 0.192094,0.127307 0.310909,0.306205 0.310909,0.506512 0,0.200307 -0.118815,0.379205 -0.310909,0.506512 -0.182417,0.12089 -0.432799,0.195669 -0.707906,0.195669 -0.275106,0 -0.525488,-0.0747795 -0.707906,-0.195669 -0.192094,-0.127307 -0.310909,-0.306205 -0.310909,-0.506512 0,-0.200307 0.118815,-0.379205 0.310909,-0.506512 0.182417,-0.12089 0.432799,-0.195669 0.707906,-0.195669zm0.61978 0.328795c-0.157362,-0.104283 -0.376394,-0.168795 -0.61978,-0.168795 -0.243386,0 -0.462417,0.0645118 -0.61978,0.168795 -0.147685,0.097874 -0.239035,0.230075 -0.239035,0.373386 0,0.143311 0.0913504,0.275512 0.239035,0.373386 0.157362,0.104283 0.376394,0.168795 0.61978,0.168795 0.243386,0 0.462417,-0.0645118 0.61978,-0.168795 0.147685,-0.097874 0.239035,-0.230075 0.239035,-0.373386 0,-0.143311 -0.0913504,-0.275512 -0.239035,-0.373386z"/><path class="fil0" d="M3.83429 6.27139c-0.0441811,0 -0.08,0.0358189 -0.08,0.08 0,0.0441811 0.0358189,0.08 0.08,0.08l2.70142 0c0.0441811,0 0.08,-0.0358189 0.08,-0.08 0,-0.0441811 -0.0358189,-0.08 -0.08,-0.08l-2.70142 0z"/></g><rect class="fil1" width="10.37" height="10.37"/><path class="fil0" d="M5.265 0.046874l2.16506 1.25 -0.00015748 0.000271654 2.1646 1.24972 0.080626 0.0465512 0 0.0915748 0 2.5 0 2.5 0 0.0915748 -0.080626 0.0465512 -2.1646 1.24972 0.00015748 0.000271654 -2.16506 1.25 -0.08 0.046185 -0.08 -0.046185 -2.16506 -1.25 0.00015748 -0.000271654 -2.1646 -1.24972 -0.080626 -0.0465512 0 -0.0915748 0 -2.5 0 -2.5 0 -0.0915748 0.080626 -0.0465512 2.1646 -1.24972 -0.00015748 -0.000271654 2.16506 -1.25 0.08 -0.046185 0.08 0.046185zm2.00506 1.52625l-2.08506 -1.20381 -2.08506 1.20381 -0.000625984 0 -2.08444 1.20345 0 2.40843 0 2.40843 2.08444 1.20345 0.000625984 0 2.08506 1.20381 2.08506 -1.20381 0.000625984 0 2.08444 -1.20345 0 -2.40843 0 -2.40843 -2.08444 -1.20345 -0.000625984 0z"/><text x="0" y="25.369999999999997" fill="#000000" font-size="5px" font-weight="bold" font-family="'Helvetica Neue', Helvetica, Arial-Unicode, Arial, Sans-serif">Created by IYIKON</text><text x="0" y="30.369999999999997" fill="#000000" font-size="5px" font-weight="bold" font-family="'Helvetica Neue', Helvetica, Arial-Unicode, Arial, Sans-serif">from the Noun Project</text></svg>